Coordinates
version=1
nRows=16
nColumns=40
inDegrees=yes

Units are S.I. units (second, meters, Newtons, ...)
Angles are in degrees.

endheader
time	pelvis_tilt	pelvis_list	pelvis_rotation	pelvis_tx	pelvis_ty	pelvis_tz	hip_flexion_r	hip_adduction_r	hip_rotation_r	knee_angle_r	knee_angle_r_beta	ankle_angle_r	subtalar_angle_r	mtp_angle_r	hip_flexion_l	hip_adduction_l	hip_rotation_l	knee_angle_l	knee_angle_l_beta	ankle_angle_l	subtalar_angle_l	mtp_angle_l	lumbar_extension	lumbar_bending	lumbar_rotation	arm_flex_r	arm_add_r	arm_rot_r	elbow_flex_r	pro_sup_r	wrist_flex_r	wrist_dev_r	arm_flex_l	arm_add_l	arm_rot_l	elbow_flex_l	pro_sup_l	wrist_flex_l	wrist_dev_l
     34.81300000	     -4.35093332	     -5.76657175	      4.77094767	      0.83559125	      0.91693449	      0.47251008	     -1.80484420	      4.97717193	    -19.68956139	     10.47204693	     10.47204693	     18.23643920	      6.89252726	     -4.03997667	     30.99544763	     -7.04745408	     -3.45807556	     18.45251207	     18.45251207	      2.39757175	     -8.53002865	      7.39007617	     -7.97815210	      8.30885664	      5.39330186	     39.87726765	    -13.14032113	      2.04209190	     88.24198756	     44.38854291	      0.00000000	      0.00000000	    -17.24724631	     -8.48532305	      8.05937145	     37.89097628	     44.46537917	      0.00000000	      0.00000000
     34.82600000	     -4.55814975	     -5.69246359	      4.48399388	      0.83732437	      0.91567175	      0.47082800	     -1.75409023	      4.64432060	    -19.18997127	     11.33576766	     11.33576766	     18.99953286	      6.40046768	     -3.16134320	     30.88364503	     -6.85279414	     -3.11025951	     18.89671530	     18.89671530	      0.99786090	     -9.67272158	      5.86578177	     -7.68290643	      8.10266404	      5.43912448	     39.67931555	    -13.34383589	      2.33134955	     89.76598981	     44.35625252	      0.00000000	      0.00000000	    -17.02140126	     -8.73383715	      8.27791917	     38.29905298	     44.47556082	      0.00000000	      0.00000000
     34.83900000	     -4.57786874	     -5.54064332	      4.25063105	      0.83914579	      0.91510034	      0.46900892	     -2.21456855	      4.31837409	    -18.92349317	     11.55376169	     11.55376169	     19.21796422	      6.37866479	     -3.14905081	     30.65774943	     -6.68936734	     -3.08869186	     19.55472811	     19.55472811	      0.67932536	     -9.90724549	      5.71917840	     -7.59669961	      7.77664882	      5.31999494	     39.70096199	    -13.24583965	      2.38698138	     89.88230915	     44.35317745	      0.00000000	      0.00000000	    -16.54376594	     -8.89617009	      8.25608950	     38.39866708	     44.48703825	      0.00000000	      0.00000000
     34.85200000	     -4.63957582	     -5.43806470	      4.00040895	      0.84084679	      0.91450800	      0.46697819	     -2.17063997	      3.89793748	    -18.41451099	     12.70242510	     12.70242510	     20.05387427	      5.77157722	     -1.57995033	     30.51270664	     -6.48544452	     -2.69604824	     20.18703559	     20.18703559	     -0.49686545	    -11.30605344	      3.16907995	     -7.50667968	      7.54506123	      5.66492831	     39.21261443	    -13.77384575	      2.42627660	     91.28246023	     44.36882468	      0.00000000	      0.00000000	    -15.64136187	     -9.02559769	      8.45702438	     37.69354009	     44.54804149	      0.00000000	      0.00000000
     34.86500000	     -4.69156378	     -5.22431343	      3.78806121	      0.84238776	      0.91435783	      0.46473412	     -2.20107411	      3.34731214	    -18.09101988	     13.64833545	     13.64833545	     20.24517134	      5.39919159	     -1.63770644	     30.44426070	     -6.22839847	     -2.61779831	     21.05734457	     21.05734457	     -0.35110660	    -11.85396348	      2.88945682	     -7.43826943	      7.19644327	      5.46100934	     38.97842568	    -13.75358225	      2.50413089	     91.33738890	     44.37648838	      0.00000000	      0.00000000	    -14.98350869	     -9.15426166	      8.42383340	     37.59604211	     44.57486460	      0.00000000	      0.00000000
     34.87800000	     -4.69223694	     -5.02517571	      3.57800772	      0.84397066	      0.91460265	      0.46238649	     -2.21886157	      2.79072972	    -17.77494349	     14.69925484	     14.69925484	     20.31548822	      4.92359970	     -1.71577512	     30.27158075	     -5.98077534	     -2.55208616	     21.86909166	     21.86909166	      0.02117230	    -12.46892102	      2.66517273	     -7.43161587	      6.85434122	      5.32043428	     38.58430573	    -13.87613697	      2.60829227	     91.35058406	     44.38130895	      0.00000000	      0.00000000	    -14.20574194	     -9.27171326	      8.33707756	     37.36539302	     44.60626516	      0.00000000	      0.00000000
     34.89100000	     -4.76009960	     -4.80175534	      3.38678070	      0.84536611	      0.91505335	      0.45979113	     -2.00256040	      2.14534636	    -17.37158000	     16.02901362	     16.02901362	     20.31651185	      4.32888548	     -1.89924428	     30.09996066	     -5.66474865	     -2.46371901	     22.54328819	     22.54328819	      0.53995531	    -13.04368693	      2.60773829	     -7.35980329	      6.54565190	      5.23356222	     37.90038344	    -14.15886326	      2.72135495	     91.32676195	     44.39042405	      0.00000000	      0.00000000	    -13.13324068	     -9.34113253	      8.17767608	     36.77768290	     44.65481097	      0.00000000	      0.00000000
     34.90400000	     -4.75097359	     -4.60136415	      3.18038679	      0.84675551	      0.91584206	      0.45713528	     -1.76192387	      1.47689225	    -17.02705996	     17.53273827	     17.53273827	     20.16371144	      3.79062333	     -2.26313337	     29.78830471	     -5.38986237	     -2.46417656	     23.14754437	     23.14754437	      1.24113869	    -13.52087715	      2.59244097	     -7.39465507	      6.25338656	      5.16692927	     37.15359484	    -14.45952889	      2.78012390	     91.14412720	     44.40409054	      0.00000000	      0.00000000	    -12.00326502	     -9.39272457	      7.99569377	     36.19331223	     44.70480163	      0.00000000	      0.00000000
     34.91700000	     -4.70109153	     -4.41570638	      2.95261412	      0.84816592	      0.91686558	      0.45441083	     -1.43636738	      0.77351739	    -16.69804551	     19.25784475	     19.25784475	     19.87557762	      3.25805390	     -2.78502022	     29.34823159	     -5.13776268	     -2.55556504	     23.62672136	     23.62672136	      2.00193150	    -13.90908534	      2.55852022	     -7.47130119	      5.99223212	      5.05825459	     36.30710891	    -14.74046054	      2.83168520	     90.78427521	     44.41973093	      0.00000000	      0.00000000	    -10.86361642	     -9.46655481	      7.81795565	     35.74404689	     44.75121259	      0.00000000	      0.00000000
     34.93000000	     -4.73620736	     -4.26536056	      2.74237220	      0.84937011	      0.91785196	      0.45165051	     -0.77003313	      0.03652169	    -16.31882263	     21.38552705	     21.38552705	     19.36202320	      2.57090599	     -3.72146978	     28.93124025	     -4.89165254	     -2.63637925	     23.94394037	     23.94394037	      2.79225898	    -14.17021540	      2.67792009	     -7.43604814	      5.76241233	      5.04537187	     35.23241943	    -15.09557263	      2.85610009	     90.23640975	     44.44388331	      0.00000000	      0.00000000	     -9.53714832	     -9.48677510	      7.57252117	     35.02076849	     44.81157057	      0.00000000	      0.00000000
     34.94300000	     -4.71724486	     -4.15386429	      2.51811822	      0.85059456	      0.91900304	      0.44887212	     -0.14965028	     -0.62170100	    -15.82977812	     23.37686914	     23.37686914	     17.67671249	      1.28998783	     -7.42566505	     28.44780123	     -4.68124519	     -2.71095853	     24.28887179	     24.28887179	      4.00163149	    -14.27874744	      3.82275607	     -7.43256544	      5.61900808	      5.32872563	     33.82743422	    -15.56828033	      2.44085370	     89.73684287	     44.51847250	      0.00000000	      0.00000000	     -7.24177172	     -9.08173776	      6.63294934	     32.13034008	     45.01203298	      0.00000000	      0.00000000
     34.95600000	     -4.67253059	     -4.02454335	      2.26374873	      0.85171522	      0.92007848	      0.44615463	      0.81840791	     -1.45423656	    -15.47668962	     26.16725750	     26.16725750	     16.90254081	      0.56684226	     -8.38781013	     27.82956811	     -4.50040677	     -3.00918240	     24.40292495	     24.40292495	      4.66091063	    -14.27800520	      3.56209945	     -7.51570114	      5.43199146	      5.16797027	     32.66987049	    -15.77008543	      2.53460772	     88.95649021	     44.54384990	      0.00000000	      0.00000000	     -6.22058883	     -9.27338991	      6.40539713	     32.38481827	     45.06378609	      0.00000000	      0.00000000
     34.96900000	     -4.63175201	     -3.91927784	      2.00782167	      0.85274022	      0.92103523	      0.44347758	      1.98782289	     -2.27484924	    -15.03816832	     29.24291406	     29.24291406	     15.82972822	     -0.44742379	     -9.53761151	     27.19881230	     -4.33641958	     -3.30843747	     24.46454966	     24.46454966	      5.28315161	    -14.29730429	      3.32115285	     -7.56432780	      5.27393457	      5.02265863	     31.43018189	    -15.94650235	      2.61203966	     87.96203848	     44.57495926	      0.00000000	      0.00000000	     -5.07038397	     -9.46140445	      6.19079124	     32.49766411	     45.11501693	      0.00000000	      0.00000000
     34.98200000	     -4.58190862	     -3.81943509	      1.77587524	      0.85359846	      0.92187617	      0.44085468	      3.35281094	     -3.10166333	    -14.55212100	     32.60416423	     32.60416423	     14.45012467	     -1.67114195	    -10.74909036	     26.56477267	     -4.17235127	     -3.60944825	     24.49985991	     24.49985991	      5.85250331	    -14.26655871	      3.06837013	     -7.64191754	      5.14226744	      4.85456967	     30.10379912	    -16.05748562	      2.68785872	     86.83067538	     44.60910250	      0.00000000	      0.00000000	     -3.83192423	     -9.66687620	      5.98186523	     32.58836189	     45.16613605	      0.00000000	      0.00000000
     34.99500000	     -4.64142951	     -3.84333320	      1.53615281	      0.85423611	      0.92251105	      0.43849516	      4.78023571	     -3.61247264	    -13.78342393	     35.40286324	     35.40286324	     10.38493857	     -5.02372997	    -18.26923982	     26.07324005	     -4.15183383	     -3.87566152	     24.51786536	     24.51786536	      6.35320451	    -14.13818914	      2.78660090	     -7.51925161	      5.11252236	      4.68349901	     28.87902433	    -15.86598343	      2.25387074	     84.55665442	     44.74340452	      0.00000000	      0.00000000	     -2.07852707	     -9.51133273	      4.54755176	     31.17087908	     45.42461767	      0.00000000	      0.00000000
     35.00800000	     -4.65887347	     -3.75293621	      1.26957665	      0.85471237	      0.92297981	      0.43613119	      6.60333410	     -4.41832801	    -13.21652302	     39.23672659	     39.23672659	      8.67528486	     -6.53720259	    -18.53492386	     25.51690742	     -4.02436639	     -4.25718462	     24.49207939	     24.49207939	      6.85013236	    -14.03982626	      2.48859313	     -7.54524883	      4.96755379	      4.53855061	     27.37420114	    -16.04553954	      2.37171091	     83.33126882	     44.77957992	      0.00000000	      0.00000000	     -0.89612546	     -9.79972809	      4.31176608	     31.62519351	     45.47820012	      0.00000000	      0.00000000
